<svg width="189" height="16" viewBox="0 0 189 16" fill="none" xmlns="http://www.w3.org/2000/svg">
<path d="M0.362305 12V1.2041H2.14941V12H0.362305ZM3.92188 6.75586L7.67188 12H5.63574L2.75 7.75195V5.61328L5.37207 1.2041H7.37891L3.92188 6.75586ZM11.4805 9.50977C11.4805 9.94922 11.5684 10.2764 11.7441 10.4912C11.9297 10.7061 12.1934 10.833 12.5352 10.8721V12.0586C12.4961 12.0684 12.4326 12.0732 12.3447 12.0732C12.0127 12.0732 11.6904 12.0293 11.3779 11.9414C11.0752 11.8535 10.8066 11.7119 10.5723 11.5166C10.3379 11.3213 10.1523 11.0625 10.0156 10.7402C9.88867 10.418 9.8252 10.0225 9.8252 9.55371C9.8252 9.10449 9.91797 8.71875 10.1035 8.39648C10.2988 8.06445 10.543 7.7959 10.8359 7.59082C11.1387 7.37598 11.4805 7.21973 11.8613 7.12207C12.2422 7.01465 12.6279 6.96094 13.0186 6.96094H13.6631V8.00098H13.3408C13.1455 8.00098 12.9404 8.02051 12.7256 8.05957C12.5107 8.09863 12.3105 8.17188 12.125 8.2793C11.9395 8.38672 11.7832 8.54297 11.6562 8.74805C11.5391 8.94336 11.4805 9.19727 11.4805 9.50977ZM16.0361 9.55371C16.0361 9.63184 16.041 9.74902 16.0508 9.90527C16.0605 10.0518 16.0801 10.2031 16.1094 10.3594C16.1387 10.5156 16.1826 10.6572 16.2412 10.7842C16.3096 10.9111 16.3975 10.9941 16.5049 11.0332L16.0361 12.0146C15.9092 12.0146 15.7725 11.9854 15.626 11.9268C15.4893 11.8682 15.3525 11.7852 15.2158 11.6777C15.0889 11.5703 14.9766 11.4531 14.8789 11.3262C14.791 11.1895 14.7227 11.043 14.6738 10.8867C14.5762 11.1309 14.3809 11.3506 14.0879 11.5459C13.8047 11.7314 13.4873 11.8682 13.1357 11.9561V10.8428C13.3701 10.7939 13.5801 10.7012 13.7656 10.5645C13.9609 10.418 14.127 10.2471 14.2637 10.0518V6.96094C14.2637 6.48242 14.2393 6.10156 14.1904 5.81836C14.1416 5.53516 14.0586 5.33008 13.9414 5.20312C13.8242 5.06641 13.6777 4.9834 13.502 4.9541C13.3359 4.91504 13.1357 4.89551 12.9014 4.89551C12.6865 4.89551 12.4814 4.9248 12.2861 4.9834C12.1006 5.03223 11.9248 5.0957 11.7588 5.17383C11.6025 5.24219 11.4609 5.32031 11.334 5.4082C11.2168 5.49609 11.1289 5.56445 11.0703 5.61328L10.4111 4.60254C10.5088 4.49512 10.6553 4.3877 10.8506 4.28027C11.0459 4.16309 11.2705 4.06055 11.5244 3.97266C11.7783 3.88477 12.0518 3.81641 12.3447 3.76758C12.6475 3.70898 12.96 3.67969 13.2822 3.67969C13.5752 3.67969 13.8584 3.70898 14.1318 3.76758C14.415 3.82617 14.6689 3.92383 14.8936 4.06055C15.1279 4.19727 15.3281 4.38281 15.4941 4.61719C15.6699 4.8418 15.792 5.125 15.8604 5.4668C15.9287 5.80859 15.9727 6.15527 15.9922 6.50684C16.0215 6.84863 16.0361 7.19043 16.0361 7.53223V9.43652V9.55371ZM18.6436 6.09668C18.6436 5.72559 18.7119 5.39355 18.8486 5.10059C18.9854 4.79785 19.1758 4.54395 19.4199 4.33887C19.6641 4.12402 19.9375 3.95801 20.2402 3.84082C20.5527 3.71387 20.875 3.63574 21.207 3.60645V5.07129C20.9531 5.12012 20.7529 5.22266 20.6064 5.37891C20.4697 5.53516 20.4014 5.75488 20.4014 6.03809C20.4014 6.27246 20.4746 6.46289 20.6211 6.60938C20.7773 6.74609 20.9727 6.86816 21.207 6.97559V8.54297C21.041 8.49414 20.8701 8.44043 20.6943 8.38184C20.5283 8.31348 20.3623 8.24023 20.1963 8.16211C19.6787 7.88867 19.2881 7.60059 19.0244 7.29785C18.7705 6.99512 18.6436 6.59473 18.6436 6.09668ZM23.5361 5.48145C23.2725 5.34473 22.9893 5.24219 22.6865 5.17383C22.3936 5.10547 22.1006 5.06152 21.8076 5.04199V3.5918C22.2471 3.61133 22.6523 3.6748 23.0234 3.78223C23.3945 3.87988 23.7559 4.04102 24.1074 4.26562L23.5361 5.48145ZM19.4199 10.1543C19.6152 10.291 19.8447 10.418 20.1084 10.5352C20.3818 10.6523 20.7236 10.7109 21.1338 10.7109H21.207V12.0732C20.9629 12.0732 20.7383 12.0635 20.5332 12.0439C20.3281 12.0342 20.123 12.0049 19.918 11.9561C19.7227 11.8975 19.5225 11.8193 19.3174 11.7217C19.1123 11.624 18.8975 11.4971 18.6729 11.3408L19.4199 10.1543ZM21.8076 7.20996C22.1006 7.30762 22.3984 7.41504 22.7012 7.53223C23.0039 7.64941 23.2773 7.7959 23.5215 7.97168C23.7754 8.14746 23.9805 8.36719 24.1367 8.63086C24.3027 8.88477 24.3857 9.20703 24.3857 9.59766C24.3857 9.97852 24.3174 10.3105 24.1807 10.5938C24.0439 10.877 23.8584 11.1211 23.624 11.3262C23.3994 11.5312 23.1309 11.6924 22.8184 11.8096C22.5059 11.9268 22.1689 12.0049 21.8076 12.0439V10.6523C22.1396 10.5938 22.3936 10.4912 22.5693 10.3447C22.7549 10.1885 22.8477 9.9834 22.8477 9.72949C22.8477 9.47559 22.7451 9.28027 22.54 9.14355C22.3447 8.99707 22.1006 8.87012 21.8076 8.7627V7.20996ZM26.6855 0.618164H28.458V12H26.6855V0.618164ZM32.8379 4.64648C33.0039 4.8125 33.1309 5.00781 33.2188 5.23242C33.3164 5.44727 33.3848 5.67676 33.4238 5.9209C33.4727 6.15527 33.502 6.39453 33.5117 6.63867C33.5215 6.88281 33.5264 7.12207 33.5264 7.35645V11.707V12H31.7393V7.50293C31.7393 7.1709 31.7246 6.85352 31.6953 6.55078C31.666 6.24805 31.5977 5.97949 31.4902 5.74512C31.3828 5.51074 31.2363 5.33008 31.0508 5.20312C30.8652 5.06641 30.6064 4.99805 30.2744 4.99805C30.1377 4.99805 29.9521 5.02246 29.7178 5.07129C29.4932 5.11035 29.2734 5.17871 29.0586 5.27637V4.14844C29.3223 4.01172 29.6055 3.89453 29.9082 3.79688C30.2207 3.69922 30.5234 3.65039 30.8164 3.65039C31.2559 3.65039 31.627 3.74316 31.9297 3.92871C32.2324 4.10449 32.5352 4.34375 32.8379 4.64648ZM37.3789 12H35.5918V3.73828H37.3789V12ZM37.54 1.10156C37.54 1.39453 37.4375 1.64355 37.2324 1.84863C37.0273 2.04395 36.7783 2.1416 36.4854 2.1416C36.1924 2.1416 35.9434 2.03906 35.7383 1.83398C35.543 1.62891 35.4453 1.38477 35.4453 1.10156C35.4453 0.808594 35.5479 0.55957 35.7529 0.354492C35.958 0.149414 36.2021 0.046875 36.4854 0.046875C36.7783 0.046875 37.0273 0.149414 37.2324 0.354492C37.4375 0.55957 37.54 0.808594 37.54 1.10156ZM46.7539 0.618164V12H45.0693L44.9668 11.0186V0.618164H46.7539ZM39.3418 7.75195C39.3418 6.99023 39.4443 6.35059 39.6494 5.83301C39.8643 5.31543 40.1377 4.89551 40.4697 4.57324C40.8018 4.25098 41.168 4.02148 41.5684 3.88477C41.9785 3.73828 42.3789 3.66504 42.7695 3.66504C43.0723 3.66504 43.3604 3.69922 43.6338 3.76758C43.9072 3.83594 44.1514 3.93359 44.3662 4.06055V5.61328C44.2002 5.4375 44.0146 5.2959 43.8096 5.18848C43.6045 5.08105 43.375 5.02734 43.1211 5.02734C42.8184 5.02734 42.5498 5.10547 42.3154 5.26172C42.0811 5.4082 41.8809 5.61328 41.7148 5.87695C41.5586 6.14062 41.4365 6.44336 41.3486 6.78516C41.2607 7.12695 41.2168 7.49316 41.2168 7.88379C41.2168 8.27441 41.2656 8.64062 41.3633 8.98242C41.4609 9.31445 41.5928 9.60742 41.7588 9.86133C41.9248 10.1152 42.125 10.3154 42.3594 10.4619C42.6035 10.6084 42.8672 10.6816 43.1504 10.6816C43.6289 10.6816 44.0342 10.4912 44.3662 10.1104V11.6338C44.1318 11.7607 43.8584 11.8682 43.5459 11.9561C43.2432 12.0342 42.9209 12.0732 42.5791 12.0732C42.1885 12.0732 41.8027 12.0049 41.4219 11.8682C41.0508 11.7217 40.7188 11.4873 40.4258 11.165C40.0547 10.7451 39.7812 10.2275 39.6055 9.6123C39.4297 8.9873 39.3418 8.36719 39.3418 7.75195ZM53.0967 3.66504C53.624 3.71387 54.0977 3.85547 54.5176 4.08984C54.9473 4.32422 55.3135 4.62695 55.6162 4.99805C55.9189 5.36914 56.1484 5.79395 56.3047 6.27246C56.4707 6.75098 56.5537 7.24902 56.5537 7.7666C56.5537 8.00098 56.5391 8.23535 56.5098 8.46973H51.4854V7.18066H54.8691C54.8691 6.92676 54.8252 6.68262 54.7373 6.44824C54.6592 6.21387 54.5371 5.99902 54.3711 5.80371C54.2148 5.59863 54.0293 5.42773 53.8145 5.29102C53.5996 5.1543 53.3604 5.07129 53.0967 5.04199V3.66504ZM53.0381 10.623C53.1455 10.623 53.2773 10.6133 53.4336 10.5938C53.5996 10.5645 53.7705 10.5205 53.9463 10.4619C54.1318 10.3936 54.3125 10.3105 54.4883 10.2129C54.6738 10.1152 54.835 9.99805 54.9717 9.86133L55.6162 10.8428C55.2939 11.2432 54.918 11.5459 54.4883 11.751C54.0586 11.9561 53.5117 12.0586 52.8477 12.0586C52.3105 12.0586 51.8076 11.9512 51.3389 11.7363C50.8701 11.5117 50.4697 11.209 50.1377 10.8281C49.8057 10.4473 49.542 10.0029 49.3467 9.49512C49.1514 8.9873 49.0537 8.44043 49.0537 7.85449C49.0537 7.29785 49.1416 6.77051 49.3174 6.27246C49.5029 5.77441 49.752 5.33984 50.0645 4.96875C50.377 4.58789 50.7383 4.28027 51.1484 4.0459C51.5684 3.81152 52.0176 3.67969 52.4961 3.65039V5.05664C52.1348 5.125 51.8369 5.27148 51.6025 5.49609C51.3682 5.7207 51.1826 5.97949 51.0459 6.27246C50.9189 6.55566 50.8262 6.84863 50.7676 7.15137C50.7188 7.4541 50.6943 7.71289 50.6943 7.92773C50.6943 8.30859 50.7383 8.66504 50.8262 8.99707C50.9238 9.31934 51.0703 9.60254 51.2656 9.84668C51.4609 10.0811 51.7002 10.2715 51.9834 10.418C52.2764 10.5547 52.6279 10.623 53.0381 10.623ZM66.5293 1.84863C66.334 1.84863 66.168 1.89746 66.0312 1.99512C65.9043 2.09277 65.7969 2.22949 65.709 2.40527C65.6211 2.58105 65.5576 2.78613 65.5186 3.02051C65.4795 3.24512 65.4551 3.48437 65.4453 3.73828H66.7197V4.93945H65.416V5.64258V12H63.6289V5.64258V4.93945H62.5449V3.73828H63.6582C63.6875 3.31836 63.7461 2.91797 63.834 2.53711C63.9219 2.14648 64.0586 1.80957 64.2441 1.52637C64.4395 1.2334 64.6982 0.999023 65.0205 0.823242C65.3525 0.647461 65.7676 0.55957 66.2656 0.55957C66.4121 0.55957 66.5684 0.574219 66.7344 0.603516C66.9004 0.623047 67.0615 0.652344 67.2178 0.691406C67.3838 0.720703 67.5352 0.759766 67.6719 0.808594C67.8086 0.857422 67.916 0.911133 67.9941 0.969727L67.4229 2.02441C67.2861 1.94629 67.1201 1.89746 66.9248 1.87793C66.7393 1.8584 66.6074 1.84863 66.5293 1.84863ZM73.0332 3.69434C73.5703 3.72363 74.0586 3.85547 74.498 4.08984C74.9375 4.31445 75.3037 4.61719 75.5967 4.99805C75.8994 5.36914 76.1338 5.80371 76.2998 6.30176C76.4658 6.7998 76.5488 7.33203 76.5488 7.89844C76.5488 8.46484 76.4609 8.99707 76.2852 9.49512C76.1191 9.9834 75.8848 10.4131 75.582 10.7842C75.2793 11.1455 74.9082 11.4385 74.4688 11.6631C74.0293 11.8877 73.5508 12.0195 73.0332 12.0586V10.6523C73.5215 10.5449 73.917 10.2373 74.2197 9.72949C74.5322 9.22168 74.6885 8.61133 74.6885 7.89844C74.6885 7.53711 74.6494 7.2002 74.5713 6.8877C74.5029 6.56543 74.3955 6.27734 74.249 6.02344C74.1025 5.76953 73.9268 5.55957 73.7217 5.39355C73.5166 5.22754 73.2871 5.12012 73.0332 5.07129V3.69434ZM68.9463 7.86914C68.9463 7.30273 69.0293 6.77539 69.1953 6.28711C69.3613 5.79883 69.5957 5.37402 69.8984 5.0127C70.2109 4.6416 70.582 4.34375 71.0117 4.11914C71.4414 3.89453 71.915 3.75781 72.4326 3.70898V5.07129C71.9443 5.17871 71.5537 5.48633 71.2607 5.99414C70.9678 6.50195 70.8213 7.1123 70.8213 7.8252C70.8213 8.18652 70.8555 8.52832 70.9238 8.85059C71.002 9.17285 71.1094 9.46094 71.2461 9.71484C71.3828 9.96875 71.5488 10.1787 71.7441 10.3447C71.9492 10.5107 72.1787 10.6133 72.4326 10.6523V12.0586C71.8955 12.0195 71.4121 11.8877 70.9824 11.6631C70.5527 11.4287 70.1865 11.126 69.8838 10.7549C69.5811 10.3838 69.3467 9.94922 69.1807 9.45117C69.0244 8.95312 68.9463 8.42578 68.9463 7.86914ZM80.4307 3.73828L80.6211 4.58789V9.07031V9.09961V12H78.8486V3.73828H80.4307ZM81.2217 4.10449C81.4658 3.96777 81.7588 3.86523 82.1006 3.79688C82.4424 3.71875 82.9062 3.67969 83.4922 3.67969V5.52539C83.2188 5.44727 82.8867 5.40332 82.4961 5.39355C82.2812 5.39355 82.0615 5.41309 81.8369 5.45215C81.6221 5.48145 81.417 5.53027 81.2217 5.59863V4.10449ZM89.5273 1.2041H91.3145V12H89.5273V1.2041ZM95.8262 7.13672H91.915V5.93555H95.8262V7.13672ZM91.915 10.667H96.2803V12H91.915V10.667ZM96.2803 1.2041V2.53711H91.915V1.2041H96.2803ZM100.177 3.73828L100.367 4.57324V12H98.5947V3.73828H100.177ZM104.747 4.64648C104.913 4.8125 105.04 5.00781 105.128 5.23242C105.226 5.44727 105.294 5.67676 105.333 5.9209C105.382 6.15527 105.411 6.39453 105.421 6.63867C105.431 6.88281 105.436 7.12207 105.436 7.35645V11.707V12H103.648V7.50293C103.648 7.1709 103.634 6.85352 103.604 6.55078C103.575 6.24805 103.507 5.97949 103.399 5.74512C103.292 5.51074 103.146 5.33008 102.96 5.20312C102.774 5.06641 102.516 4.99805 102.184 4.99805C102.047 4.99805 101.861 5.02246 101.627 5.07129C101.402 5.11035 101.183 5.17871 100.968 5.27637V4.14844C101.231 4.01172 101.515 3.89453 101.817 3.79688C102.13 3.69922 102.433 3.65039 102.726 3.65039C103.165 3.65039 103.536 3.74316 103.839 3.92871C104.142 4.10449 104.444 4.34375 104.747 4.64648ZM110.885 12.0732C110.338 12.0732 109.859 11.9561 109.449 11.7217C109.039 11.4775 108.697 11.1553 108.424 10.7549C108.15 10.3545 107.95 9.89551 107.823 9.37793C107.696 8.86035 107.633 8.31836 107.633 7.75195C107.633 6.99023 107.735 6.35059 107.94 5.83301C108.155 5.31543 108.424 4.89551 108.746 4.57324C109.078 4.24121 109.444 4.00684 109.845 3.87012C110.255 3.7334 110.655 3.66504 111.046 3.66504C111.349 3.66504 111.637 3.69922 111.91 3.76758C112.184 3.83594 112.433 3.93359 112.657 4.06055V5.61328C112.501 5.4375 112.315 5.2959 112.101 5.18848C111.896 5.08105 111.671 5.02734 111.427 5.02734C111.134 5.02734 110.865 5.10547 110.621 5.26172C110.387 5.4082 110.187 5.6084 110.021 5.8623C109.854 6.11621 109.728 6.41406 109.64 6.75586C109.552 7.09766 109.508 7.45898 109.508 7.83984C109.508 8.23047 109.552 8.60156 109.64 8.95312C109.737 9.29492 109.869 9.59277 110.035 9.84668C110.211 10.1006 110.416 10.3057 110.65 10.4619C110.895 10.6084 111.163 10.6816 111.456 10.6816C111.7 10.6816 111.92 10.6328 112.115 10.5352C112.311 10.4277 112.491 10.291 112.657 10.125V11.6484C112.423 11.7656 112.154 11.8682 111.852 11.9561C111.549 12.0342 111.227 12.0732 110.885 12.0732ZM115.03 3.73828L115.016 12C114.977 12.5957 114.854 13.1035 114.649 13.5234C114.454 13.9434 114.2 14.29 113.888 14.5635C113.575 14.8369 113.214 15.0322 112.804 15.1494C112.394 15.2666 111.954 15.3252 111.485 15.3252C110.938 15.3252 110.396 15.2275 109.859 15.0322C109.332 14.8467 108.893 14.5293 108.541 14.0801L109.566 13.0693C109.664 13.2354 109.786 13.3721 109.933 13.4795C110.089 13.5869 110.245 13.6699 110.401 13.7285C110.567 13.7871 110.729 13.8262 110.885 13.8457C111.051 13.875 111.197 13.8896 111.324 13.8896C111.93 13.8896 112.403 13.7139 112.745 13.3623C113.087 13.0107 113.258 12.4102 113.258 11.5605V4.57324L113.448 3.73828H115.03ZM119.645 9.48047C119.645 9.8125 119.688 10.0762 119.776 10.2715C119.864 10.457 119.986 10.5986 120.143 10.6963C120.299 10.7842 120.475 10.8428 120.67 10.8721C120.875 10.9014 121.095 10.916 121.329 10.916V12C121.202 12.0195 121.07 12.0342 120.934 12.0439C120.826 12.0537 120.699 12.0586 120.553 12.0586C120.406 12.0684 120.26 12.0732 120.113 12.0732C119.967 12.0732 119.82 12.0684 119.674 12.0586C119.527 12.0488 119.396 12.0342 119.278 12.0146C118.946 11.9463 118.688 11.7998 118.502 11.5752C118.316 11.3506 118.175 11.1016 118.077 10.8281C117.979 10.5449 117.916 10.2715 117.887 10.0078C117.867 9.74414 117.857 9.53906 117.857 9.39258V9.2168V0.618164H119.645V9.48047ZM124.977 12H123.189V3.73828H124.977V12ZM125.138 1.10156C125.138 1.39453 125.035 1.64355 124.83 1.84863C124.625 2.04395 124.376 2.1416 124.083 2.1416C123.79 2.1416 123.541 2.03906 123.336 1.83398C123.141 1.62891 123.043 1.38477 123.043 1.10156C123.043 0.808594 123.146 0.55957 123.351 0.354492C123.556 0.149414 123.8 0.046875 124.083 0.046875C124.376 0.046875 124.625 0.149414 124.83 0.354492C125.035 0.55957 125.138 0.808594 125.138 1.10156ZM127.276 6.09668C127.276 5.72559 127.345 5.39355 127.481 5.10059C127.618 4.79785 127.809 4.54395 128.053 4.33887C128.297 4.12402 128.57 3.95801 128.873 3.84082C129.186 3.71387 129.508 3.63574 129.84 3.60645V5.07129C129.586 5.12012 129.386 5.22266 129.239 5.37891C129.103 5.53516 129.034 5.75488 129.034 6.03809C129.034 6.27246 129.107 6.46289 129.254 6.60938C129.41 6.74609 129.605 6.86816 129.84 6.97559V8.54297C129.674 8.49414 129.503 8.44043 129.327 8.38184C129.161 8.31348 128.995 8.24023 128.829 8.16211C128.312 7.88867 127.921 7.60059 127.657 7.29785C127.403 6.99512 127.276 6.59473 127.276 6.09668ZM132.169 5.48145C131.905 5.34473 131.622 5.24219 131.319 5.17383C131.026 5.10547 130.733 5.06152 130.44 5.04199V3.5918C130.88 3.61133 131.285 3.6748 131.656 3.78223C132.027 3.87988 132.389 4.04102 132.74 4.26562L132.169 5.48145ZM128.053 10.1543C128.248 10.291 128.478 10.418 128.741 10.5352C129.015 10.6523 129.356 10.7109 129.767 10.7109H129.84V12.0732C129.596 12.0732 129.371 12.0635 129.166 12.0439C128.961 12.0342 128.756 12.0049 128.551 11.9561C128.355 11.8975 128.155 11.8193 127.95 11.7217C127.745 11.624 127.53 11.4971 127.306 11.3408L128.053 10.1543ZM130.44 7.20996C130.733 7.30762 131.031 7.41504 131.334 7.53223C131.637 7.64941 131.91 7.7959 132.154 7.97168C132.408 8.14746 132.613 8.36719 132.77 8.63086C132.936 8.88477 133.019 9.20703 133.019 9.59766C133.019 9.97852 132.95 10.3105 132.813 10.5938C132.677 10.877 132.491 11.1211 132.257 11.3262C132.032 11.5312 131.764 11.6924 131.451 11.8096C131.139 11.9268 130.802 12.0049 130.44 12.0439V10.6523C130.772 10.5938 131.026 10.4912 131.202 10.3447C131.388 10.1885 131.48 9.9834 131.48 9.72949C131.48 9.47559 131.378 9.28027 131.173 9.14355C130.978 8.99707 130.733 8.87012 130.44 8.7627V7.20996ZM135.318 0.618164H137.091V12H135.318V0.618164ZM141.471 4.64648C141.637 4.8125 141.764 5.00781 141.852 5.23242C141.949 5.44727 142.018 5.67676 142.057 5.9209C142.105 6.15527 142.135 6.39453 142.145 6.63867C142.154 6.88281 142.159 7.12207 142.159 7.35645V11.707V12H140.372V7.50293C140.372 7.1709 140.357 6.85352 140.328 6.55078C140.299 6.24805 140.23 5.97949 140.123 5.74512C140.016 5.51074 139.869 5.33008 139.684 5.20312C139.498 5.06641 139.239 4.99805 138.907 4.99805C138.771 4.99805 138.585 5.02246 138.351 5.07129C138.126 5.11035 137.906 5.17871 137.691 5.27637V4.14844C137.955 4.01172 138.238 3.89453 138.541 3.79688C138.854 3.69922 139.156 3.65039 139.449 3.65039C139.889 3.65039 140.26 3.74316 140.562 3.92871C140.865 4.10449 141.168 4.34375 141.471 4.64648ZM153.307 2.87402C153.258 2.85449 153.199 2.82031 153.131 2.77148C153.062 2.72266 152.965 2.67871 152.838 2.63965C152.711 2.59082 152.55 2.55176 152.354 2.52246C152.159 2.49316 151.91 2.48828 151.607 2.50781V1.02832C152.037 1.03809 152.472 1.08691 152.911 1.1748C153.36 1.25293 153.722 1.37988 153.995 1.55566C153.937 1.68262 153.868 1.82422 153.79 1.98047C153.712 2.12695 153.639 2.26855 153.57 2.40527C153.502 2.53223 153.443 2.63965 153.395 2.72754C153.346 2.81543 153.316 2.86426 153.307 2.87402ZM148.253 4.0459C148.253 3.61621 148.326 3.23047 148.473 2.88867C148.619 2.54687 148.814 2.24902 149.059 1.99512C149.312 1.73145 149.605 1.52637 149.938 1.37988C150.279 1.22363 150.636 1.12109 151.007 1.07227V2.61035C150.694 2.71777 150.436 2.9082 150.23 3.18164C150.025 3.44531 149.923 3.71387 149.923 3.9873C149.923 4.36816 150.025 4.67578 150.23 4.91016C150.436 5.14453 150.694 5.34961 151.007 5.52539V7.19531C150.685 7.03906 150.362 6.87305 150.04 6.69727C149.718 6.51172 149.425 6.29688 149.161 6.05273C148.897 5.80859 148.678 5.52539 148.502 5.20312C148.336 4.88086 148.253 4.49512 148.253 4.0459ZM148.487 10.0225C148.624 10.1006 148.795 10.1787 149 10.2568C149.215 10.3252 149.435 10.3936 149.659 10.4619C149.884 10.5205 150.108 10.5693 150.333 10.6084C150.558 10.6475 150.768 10.667 150.963 10.667H151.007V12.0586H150.978C150.743 12.0586 150.499 12.0439 150.245 12.0146C150.001 11.9951 149.752 11.9561 149.498 11.8975C149.244 11.8389 149 11.7607 148.766 11.6631C148.541 11.5557 148.346 11.4287 148.18 11.2822L148.487 10.0225ZM151.607 5.81836C151.93 5.96484 152.257 6.12109 152.589 6.28711C152.931 6.45312 153.238 6.6582 153.512 6.90234C153.785 7.13672 154.01 7.4248 154.186 7.7666C154.361 8.1084 154.449 8.5332 154.449 9.04102C154.449 9.39258 154.381 9.73438 154.244 10.0664C154.117 10.3984 153.932 10.7012 153.688 10.9746C153.453 11.2383 153.16 11.4629 152.809 11.6484C152.457 11.834 152.057 11.9561 151.607 12.0146V10.6084C152.408 10.4131 152.809 9.88086 152.809 9.01172C152.809 8.66992 152.696 8.38672 152.472 8.16211C152.247 7.9375 151.959 7.72754 151.607 7.53223V5.81836ZM158.551 9.49512C158.551 9.82715 158.595 10.0859 158.683 10.2715C158.771 10.457 158.893 10.5986 159.049 10.6963C159.215 10.7939 159.396 10.8574 159.591 10.8867C159.796 10.9062 160.011 10.916 160.235 10.916V12C160.108 12.0195 159.981 12.0342 159.854 12.0439C159.747 12.0537 159.615 12.0586 159.459 12.0586C159.312 12.0684 159.166 12.0732 159.02 12.0732C158.873 12.0732 158.722 12.0684 158.565 12.0586C158.419 12.0488 158.292 12.0342 158.185 12.0146C157.853 11.9561 157.594 11.8145 157.408 11.5898C157.223 11.3555 157.081 11.1016 156.983 10.8281C156.896 10.5449 156.837 10.2715 156.808 10.0078C156.788 9.74414 156.778 9.53906 156.778 9.39258V4.93945H155.694V3.73828H156.778V1.39453H158.551V3.73828H159.869V4.93945H158.551V9.49512ZM164.044 8.23535C164.044 8.57715 164.059 8.89941 164.088 9.20215C164.117 9.49512 164.181 9.75391 164.278 9.97852C164.376 10.2031 164.522 10.3838 164.718 10.5205C164.913 10.6572 165.172 10.7256 165.494 10.7256C165.621 10.7256 165.802 10.7061 166.036 10.667C166.271 10.6279 166.495 10.5645 166.71 10.4766V11.5605C166.456 11.6973 166.178 11.8193 165.875 11.9268C165.582 12.0244 165.289 12.0732 164.996 12.0732C164.762 12.0732 164.552 12.0488 164.366 12C164.181 11.9609 164.005 11.8975 163.839 11.8096C163.683 11.7119 163.531 11.6045 163.385 11.4873C163.238 11.3701 163.092 11.2383 162.945 11.0918C162.779 10.9258 162.647 10.7354 162.55 10.5205C162.452 10.2959 162.379 10.0664 162.33 9.83203C162.291 9.58789 162.267 9.34375 162.257 9.09961C162.257 8.85547 162.257 8.61621 162.257 8.38184V3.73828H164.044V8.23535ZM169.098 3.73828V12H167.501L167.311 11.1504V3.73828H169.098ZM178.473 0.618164V12H176.788L176.686 11.0186V0.618164H178.473ZM171.061 7.75195C171.061 6.99023 171.163 6.35059 171.368 5.83301C171.583 5.31543 171.856 4.89551 172.188 4.57324C172.521 4.25098 172.887 4.02148 173.287 3.88477C173.697 3.73828 174.098 3.66504 174.488 3.66504C174.791 3.66504 175.079 3.69922 175.353 3.76758C175.626 3.83594 175.87 3.93359 176.085 4.06055V5.61328C175.919 5.4375 175.733 5.2959 175.528 5.18848C175.323 5.08105 175.094 5.02734 174.84 5.02734C174.537 5.02734 174.269 5.10547 174.034 5.26172C173.8 5.4082 173.6 5.61328 173.434 5.87695C173.277 6.14062 173.155 6.44336 173.067 6.78516C172.979 7.12695 172.936 7.49316 172.936 7.88379C172.936 8.27441 172.984 8.64062 173.082 8.98242C173.18 9.31445 173.312 9.60742 173.478 9.86133C173.644 10.1152 173.844 10.3154 174.078 10.4619C174.322 10.6084 174.586 10.6816 174.869 10.6816C175.348 10.6816 175.753 10.4912 176.085 10.1104V11.6338C175.851 11.7607 175.577 11.8682 175.265 11.9561C174.962 12.0342 174.64 12.0732 174.298 12.0732C173.907 12.0732 173.521 12.0049 173.141 11.8682C172.77 11.7217 172.438 11.4873 172.145 11.165C171.773 10.7451 171.5 10.2275 171.324 9.6123C171.148 8.9873 171.061 8.36719 171.061 7.75195ZM188.946 3.73828C188.409 5.17383 187.931 6.44824 187.511 7.56152C187.091 8.66504 186.725 9.63672 186.412 10.4766C186.1 11.3066 185.821 12.0098 185.577 12.5859C185.343 13.1621 185.123 13.6406 184.918 14.0215C184.723 14.4121 184.537 14.7148 184.361 14.9297C184.186 15.1543 184.005 15.3252 183.819 15.4424C183.634 15.5596 183.429 15.6279 183.204 15.6475C182.989 15.6768 182.74 15.6914 182.457 15.6914C182.369 15.6914 182.267 15.6768 182.149 15.6475C182.032 15.6279 181.915 15.5986 181.798 15.5596C181.69 15.5303 181.593 15.4961 181.505 15.457C181.417 15.4277 181.358 15.4082 181.329 15.3984C181.368 15.2227 181.407 15.0566 181.446 14.9004C181.476 14.7637 181.505 14.6318 181.534 14.5049C181.573 14.3877 181.603 14.3047 181.622 14.2559C181.7 14.2559 181.817 14.2803 181.974 14.3291C182.14 14.3779 182.262 14.4023 182.34 14.4023C182.496 14.4023 182.633 14.3926 182.75 14.373C182.877 14.3633 182.989 14.3193 183.087 14.2412C183.185 14.1729 183.277 14.0654 183.365 13.9189C183.453 13.7822 183.551 13.582 183.658 13.3184L184.215 12L187.159 3.73828H188.946ZM183.907 11.2236L180.831 3.73828H182.604L184.713 9.29004L184.508 9.78809L183.907 11.2236Z" fill="#FF749E"/>
</svg>
